<svg version="1.1" xmlns="http://www.w3.org/2000/svg" xmlns:xlink="http://www.w3.org/1999/xlink" width="858.73414" height="473.04444" viewBox="0,0,858.73414,473.04444"><defs><linearGradient x1="152.5" y1="86" x2="152.5" y2="274" gradientUnits="userSpaceOnUse" id="color-1"><stop offset="0" stop-color="#ad07ff"/><stop offset="1" stop-color="#078bff"/></linearGradient><linearGradient x1="152.5" y1="86" x2="152.5" y2="274" gradientUnits="userSpaceOnUse" id="color-2"><stop offset="0" stop-color="#000000"/><stop offset="1" stop-color="#000000" stop-opacity="0"/></linearGradient></defs><g transform="translate(91.07803,56.52222)"><g stroke-miterlimit="10"><path d="M-90.57803,416.02222v-472.04444h821.15605v472.04444z" fill="#ffffff" stroke="#000000" stroke-width="1"/><text transform="translate(97.8712,208.95552) scale(2.41296,2.41296)" font-size="40" xml:space="preserve" fill="#ffffff" stroke-opacity="0.48235" stroke="#616161" stroke-width="1" font-family="&quot;Franklin Gothic Heavy Regular&quot;, Sans Serif" font-weight="400" text-anchor="start"><tspan x="0" dy="0">Insane Avenue</tspan></text><text transform="translate(97.8712,208.95552) scale(2.41296,2.41296)" font-size="40" xml:space="preserve" fill="#ffffff" stroke="none" stroke-width="1" font-family="&quot;Franklin Gothic Heavy Regular&quot;, Sans Serif" font-weight="400" text-anchor="start"><tspan x="0" dy="0">Insane Avenue</tspan></text><path d="M58.5,180c0,-51.91476 42.08524,-94 94,-94c51.91476,0 94,42.08524 94,94c0,51.91476 -42.08524,94 -94,94c-51.91476,0 -94,-42.08524 -94,-94zM152.5,271.05c50.28553,0 91.05,-40.76447 91.05,-91.05c0,-50.28553 -40.76447,-91.05 -91.05,-91.05c-50.28553,0 -91.05,40.76447 -91.05,91.05c0,50.28553 40.76447,91.05 91.05,91.05z" fill="url(#color-1)" stroke="url(#color-2)" stroke-width="0"/><text transform="translate(77.56071,161.62287) scale(0.60417,0.60417)" font-size="40" xml:space="preserve" fill-opacity="0.50196" fill="#000000" stroke="none" stroke-width="1" font-family="&quot;Franklin Gothic Heavy Regular&quot;, Sans Serif" font-weight="normal" text-anchor="start"><tspan x="0" dy="0">Stage 5</tspan></text><text transform="translate(97.19683,204.83611) scale(1.67259,1.67259)" font-size="40" xml:space="preserve" fill="#000000" stroke="none" stroke-width="1" font-family="&quot;Franklin Gothic Heavy Regular&quot;, Sans Serif" font-weight="400" text-anchor="start"><tspan x="0" dy="0">Insane Avenue</tspan></text><text transform="translate(282.22183,312) scale(0.5,0.5)" font-size="40" xml:space="preserve" fill-opacity="0.5098" fill="#000000" stroke="none" stroke-width="1" font-family="&quot;Franklin Gothic Heavy Regular&quot;, Sans Serif" font-weight="normal" text-anchor="start"><tspan x="0" dy="0">Loading...</tspan></text></g></g></svg>